<svg width="284" height="96" viewBox="0 0 284 96" fill="none" xmlns="http://www.w3.org/2000/svg" role="img" aria-labelledby="title desc">
  <title id="title">Phoenix Fitness</title>
  <desc id="desc">Phoenix Fitness white logo mark and wordmark</desc>
  <g fill="#fff">
    <path d="M44.4 8.1c9.1 1.7 17.2 7.1 22.2 14.8-7.8-2.1-14.8-.7-20.7 4.2 6.2-.2 11.8 2.4 16.3 7.5-7.6-1.3-14.5.8-20 6.2 6.5.7 12.1 4 16.1 9.5-8.2-.2-15.4 2.8-20.8 8.8 2.2-7.1 1-14.2-3.5-20.8-1.7 7.1-5.7 12.5-12.1 16.2 1.3-6.7.2-12.9-3.2-18.5-2.2 5.9-6 10.4-11.5 13.5.8-8.3 4.6-15.9 10.6-21.5C21.7 20.8 31.5 7.1 44.4 8.1Z"/>
    <path d="M40.2 63.8c-5.5 2.2-11.5 2.1-17-.4 4.9 6.8 12.7 11.2 21.6 11.7 8.9-.5 16.7-4.9 21.6-11.7-5.5 2.5-11.5 2.6-17 .4l-4.6 11.6-4.6-11.6Z"/>
    <path d="M25.3 17.7C15.4 23.3 8.7 33.8 8.7 45.9c0 8.5 3.3 16.2 8.7 22-8.5-5.7-14.1-15.4-14.1-26.4 0-13.2 8.1-24.6 19.6-29.4l2.4 5.6Z"/>
    <path d="M64.3 17.7c9.9 5.6 16.6 16.1 16.6 28.2 0 8.5-3.3 16.2-8.7 22 8.5-5.7 14.1-15.4 14.1-26.4 0-13.2-8.1-24.6-19.6-29.4l-2.4 5.6Z"/>
  </g>
  <g fill="#fff">
    <path d="M101.5 17.2h20.2c11.4 0 17.9 5.5 17.9 15.3 0 10.2-7.1 16-18.4 16h-8.2v17.1h-11.5V17.2Zm18.9 21.7c4.9 0 7.6-2.2 7.6-6.1 0-3.8-2.6-5.9-7.6-5.9h-7.4v12h7.4Z"/>
    <path d="M145.5 17.2H157v18.2h18.7V17.2h11.5v48.4h-11.5V45.4H157v20.2h-11.5V17.2Z"/>
    <path d="M198.6 17.2h37v9.7h-25.5v9.1h23.1v9.2h-23.1v10.7h26.1v9.7h-37.6V17.2Z"/>
    <path d="M243.7 17.2h10.8l18.1 28.5V17.2h10.9v48.4h-10.3l-18.6-29.4v29.4h-10.9V17.2Z"/>
    <path d="M101.5 72.3h39.2v8.1h-14.4v7.2h-10.4v-7.2h-14.4v-8.1Z"/>
    <path d="M146.2 72.3h10.4v15.3h-10.4V72.3Z"/>
    <path d="M165.5 72.3h33.6v7.5h-23.2v2.2h21v5.6h-31.4V72.3Z"/>
    <path d="M204.9 72.3h10.2l16.3 15.3H220l-2.2-2.2h-15.8l-2.2 2.2h-11.2l16.3-15.3Zm8.2 8.4-3.2-3.1-3.2 3.1h6.4Z"/>
    <path d="M236.6 72.3h31.8v6.5H247v1.6h19.5v5.4H236.6V72.3Z"/>
  </g>
</svg>
